<svg width="173" height="114" viewBox="0 0 173 114" fill="none" xmlns="http://www.w3.org/2000/svg">
<circle cx="7.5" cy="7.5" r="7.5" fill="white" fill-opacity="0.5"/>
<circle cx="7.5" cy="40.5" r="7.5" fill="white" fill-opacity="0.5"/>
<circle cx="7.5" cy="73.5" r="7.5" fill="white" fill-opacity="0.5"/>
<circle cx="7.5" cy="106.5" r="7.5" fill="white" fill-opacity="0.5"/>
<circle cx="33.75" cy="7.5" r="7.5" fill="white" fill-opacity="0.5"/>
<circle cx="33.75" cy="40.5" r="7.5" fill="white" fill-opacity="0.5"/>
<circle cx="33.75" cy="73.5" r="7.5" fill="white" fill-opacity="0.5"/>
<circle cx="33.75" cy="106.5" r="7.5" fill="white" fill-opacity="0.5"/>
<circle cx="86.25" cy="7.5" r="7.5" fill="white" fill-opacity="0.5"/>
<circle cx="86.25" cy="40.5" r="7.5" fill="white" fill-opacity="0.5"/>
<circle cx="86.25" cy="73.5" r="7.5" fill="white" fill-opacity="0.5"/>
<circle cx="86.25" cy="106.5" r="7.5" fill="white" fill-opacity="0.5"/>
<circle cx="112.5" cy="7.5" r="7.5" fill="white" fill-opacity="0.5"/>
<circle cx="112.5" cy="40.5" r="7.5" fill="white" fill-opacity="0.5"/>
<circle cx="112.5" cy="73.5" r="7.5" fill="white" fill-opacity="0.5"/>
<circle cx="112.5" cy="106.5" r="7.5" fill="white" fill-opacity="0.5"/>
<circle cx="138.75" cy="7.5" r="7.5" fill="white" fill-opacity="0.5"/>
<circle cx="138.75" cy="40.5" r="7.5" fill="white" fill-opacity="0.5"/>
<circle cx="138.75" cy="73.5" r="7.5" fill="white" fill-opacity="0.5"/>
<circle cx="138.75" cy="106.5" r="7.5" fill="white" fill-opacity="0.5"/>
<circle cx="165" cy="7.5" r="7.5" fill="white" fill-opacity="0.5"/>
<circle cx="165" cy="40.5" r="7.5" fill="white" fill-opacity="0.5"/>
<circle cx="165" cy="73.5" r="7.5" fill="white" fill-opacity="0.5"/>
<circle cx="165" cy="106.5" r="7.5" fill="white" fill-opacity="0.5"/>
<circle cx="60" cy="7.5" r="7.5" fill="white" fill-opacity="0.5"/>
<circle cx="60" cy="40.5" r="7.5" fill="white" fill-opacity="0.5"/>
<circle cx="60" cy="73.5" r="7.5" fill="white" fill-opacity="0.5"/>
<circle cx="60" cy="106.5" r="7.5" fill="white" fill-opacity="0.5"/>
</svg>
